<?xml version="1.0" encoding="UTF-8"?>
<svg id="Calque_2" data-name="Calque 2" xmlns="http://www.w3.org/2000/svg" viewBox="0 0 1080 1080">
  <defs>
    <style>
      .cls-1 {
        fill: none;
      }

      .cls-2 {
        fill: #d16e63;
      }
    </style>
  </defs>
  <g id="Calque_1-2" data-name="Calque 1">
    <g>
      <rect class="cls-1" width="1080" height="1080"/>
      <g>
        <path class="cls-2" d="M493.31,291.66c29.61-33.16,66.31-100.64,117.21-100.64,21.33,0,47.37,15.39,47.37,39.08,0,10.67-10.65,29.61-17.76,37.9-54.47,63.94-116.03,126.68-161.03,198.91-52.07,84.08,67.64,344.3-60.38,337.48-65.12,0-56.85-74.61-56.85-119.61,0-66.31-4.72-134.98-9.47-202.48-7.1-103.02-137.35-172.88-137.35-273.52,13.72-25.84,48.61-30.5,73.41-22.49,17.76,5.92,35.53,47.35,45,62.74,28.41,42.63,56.84,84.08,90,121.98,30.78-8.29,48.55-55.67,69.86-79.35Z"/>
        <path class="cls-2" d="M783.32,953.58c-113.94,122.08-179.44-115.65-67.49-117.21,71.65-.8,92.98,57.61,67.49,117.21Zm71.06-755.45c-8.31,153.75-27.53,319.84-49.74,472.46-14.8,46.98-102.7,53.51-101.82-7.1,0-68.68,21.31-136.17,29.58-203.66,19.55-77.82-12.84-365.7,84.07-368.27,72.06,1.62,44.28,60.6,37.91,106.57Z"/>
      </g>
    </g>
  </g>
</svg>