<?xml version="1.0" encoding="UTF-8"?>
<svg id="Calque_2" data-name="Calque 2" xmlns="http://www.w3.org/2000/svg" viewBox="0 0 400 400">
  <defs>
    <style>
      .cls-1 {
        fill: none;
      }

      .cls-2 {
        fill: #d16e63;
      }
    </style>
  </defs>
  <g id="Calque_1-2" data-name="Calque 1">
    <g>
      <rect class="cls-1" width="400" height="400"/>
      <g>
        <path class="cls-2" d="M187.77,134.94c7.76-8.69,17.37-26.36,30.7-26.36,5.59,0,12.41,4.03,12.41,10.24,0,2.79-2.79,7.76-4.65,9.93-14.27,16.75-30.4,33.19-42.18,52.11-13.64,22.02,17.72,90.19-15.82,88.41-17.06,0-14.89-19.54-14.89-31.33,0-17.37-1.24-35.36-2.48-53.04-1.86-26.99-35.98-45.29-35.98-71.65,3.59-6.77,12.74-7.99,19.23-5.89,4.65,1.55,9.31,12.4,11.79,16.44,7.44,11.17,14.89,22.02,23.58,31.95,8.06-2.17,12.72-14.58,18.3-20.79Z"/>
        <path class="cls-2" d="M263.74,308.34c-29.85,31.98-47.01-30.3-17.68-30.71,18.77-.21,24.36,15.09,17.68,30.71Zm18.61-197.9c-2.18,40.28-7.21,83.78-13.03,123.76-3.88,12.31-26.9,14.02-26.67-1.86,0-17.99,5.58-35.67,7.75-53.35,5.12-20.39-3.36-95.8,22.02-96.47,18.88,.42,11.6,15.88,9.93,27.92Z"/>
      </g>
    </g>
  </g>
</svg>